<svg width="33" height="34" viewBox="0 0 33 34" fill="none" xmlns="http://www.w3.org/2000/svg">
<g id="Group 5">
<g id="Group 4">
<g id="&#240;&#159;&#166;&#134; icon &#34;firefox 57 70&#34;" filter="url(#filter0_d_18_69)">
<path id="Vector" d="M24.1718 2.88867C23.5742 3.58438 23.2959 5.15048 23.9018 6.73803C24.5077 8.32559 25.4365 7.98073 26.0154 9.59947C26.7795 11.7355 26.4239 14.6052 26.4239 14.6052C26.4239 14.6052 27.3422 17.2653 27.9828 14.4397C29.4001 9.13209 24.1718 4.19625 24.1718 2.88867Z" fill="url(#paint0_radial_18_69)"/>
<path id="fox" d="M25.1796 20.6577C24.9401 20.8266 24.689 20.9783 24.428 21.1114C24.7738 20.6044 25.0928 20.0797 25.3837 19.5393C25.6198 19.2781 25.8361 19.024 26.0125 18.7495C26.0984 18.6148 26.1947 18.4481 26.2975 18.255C26.9193 17.1345 27.6051 15.3214 27.6245 13.4589V13.3176C27.6278 12.8501 27.58 12.3836 27.4821 11.9264L27.496 12.0337L27.4801 11.9514C27.4893 12.0013 27.4965 12.0512 27.505 12.1011C27.6323 13.1796 27.5417 14.2314 27.0888 15.007L27.0671 15.0399C27.3016 13.8614 27.3805 12.5595 27.1195 11.2569C27.1195 11.2569 27.0147 10.6236 26.2366 8.70068C25.7874 7.59398 24.9932 6.68641 24.2902 6.02564C23.6739 5.2633 23.1149 4.753 22.8062 4.4271C22.1619 3.74836 21.8919 3.24006 21.7806 2.90817C21.6846 2.86001 20.4546 1.66548 20.357 1.61981C19.8205 2.45202 18.1321 5.05519 18.9347 7.48768C19.2985 8.58988 20.219 9.73351 21.1822 10.3758C21.2247 10.4242 21.7562 10.9997 22.0082 12.3012C22.269 13.645 22.133 14.6933 21.5955 16.2439C20.9641 17.6039 19.3479 18.9489 17.8344 19.0862C14.5987 19.3801 13.4139 17.4617 13.4139 17.4617C14.5703 17.9238 15.8486 17.8272 16.6259 17.3479C17.4095 16.863 17.8836 16.5037 18.2679 16.6454C18.6464 16.7847 18.9494 16.3747 18.6774 15.9505C18.4681 15.6282 18.1687 15.3746 17.8164 15.2212C17.4641 15.0678 17.0745 15.0214 16.6961 15.0878C15.9118 15.2151 15.1931 15.8364 14.1658 15.2351C14.0992 15.1965 14.0348 15.1543 13.9729 15.1088C13.9055 15.0639 14.1932 15.1767 14.1258 15.1263C13.9262 15.0177 13.5719 14.7809 13.48 14.6966C13.4651 14.6826 13.6352 14.751 13.6198 14.737C12.659 13.9459 12.7788 13.4112 12.8088 13.0758C12.8337 12.8076 13.0084 12.4639 13.3016 12.3247C13.4438 12.4021 13.5322 12.4615 13.5322 12.4615L13.4389 12.2723C13.4503 12.2673 13.4613 12.2686 13.4728 12.2638C13.5891 12.32 13.8471 12.4659 13.9818 12.555C14.1583 12.6798 14.2147 12.7906 14.2147 12.7906C14.2147 12.7906 14.2611 12.7656 14.2266 12.6566C14.2142 12.6122 14.1605 12.4707 13.9858 12.3279H13.9968C14.1015 12.3875 14.2006 12.4564 14.293 12.5336C14.3429 12.3544 14.431 12.1672 14.4115 11.8324C14.3996 11.5971 14.4051 11.5362 14.3636 11.4456C14.3262 11.3675 14.3843 11.337 14.449 11.4181C14.4379 11.3546 14.4194 11.2926 14.3938 11.2335V11.2275C14.4744 10.947 16.0969 10.2179 16.2155 10.1325C16.4095 9.99521 16.5722 9.8183 16.6928 9.61348C16.7831 9.46975 16.851 9.26788 16.8675 8.96219C16.8765 8.7416 16.7737 8.59462 15.1332 8.42269C14.684 8.37852 14.4213 8.05338 14.2716 7.75343C14.2441 7.68856 14.2167 7.63016 14.1885 7.57177C14.1619 7.50337 14.1405 7.43305 14.1246 7.36141C14.3928 6.59109 14.8432 5.93905 15.5063 5.44746C15.5424 5.41452 15.362 5.45595 15.398 5.42251C15.4404 5.38408 15.7149 5.27279 15.7673 5.24783C15.8307 5.21789 15.4958 5.07565 15.2001 5.11059C14.8989 5.14452 14.835 5.18046 14.6743 5.24858C14.7409 5.1822 14.953 5.09512 14.9034 5.09561C14.579 5.14552 14.1752 5.33417 13.8304 5.54778C13.8297 5.51055 13.8367 5.47358 13.8511 5.43923C13.6904 5.50735 13.2956 5.78359 13.1806 6.01666C13.1856 5.97192 13.1878 5.92692 13.1873 5.88191C13.0649 5.98404 12.9545 6.09974 12.8582 6.22677L12.8522 6.23226C11.9199 5.85795 11.0997 5.833 10.4055 6.00069C10.2533 5.84847 10.1794 5.95976 9.83404 5.20042C9.85201 5.24534 9.81058 5.15475 9.83404 5.20042C9.86897 5.39681 9.77714 5.05319 9.83404 5.20042C9.25312 5.65882 8.48853 6.17861 8.12147 6.54543C8.54967 6.42315 8.11697 6.5604 8.12147 6.54543C7.97174 6.58835 7.98172 6.67718 7.95927 7.48119C7.95378 7.54208 7.95927 7.61045 7.95378 7.66535C7.66057 8.03965 7.46094 8.35507 7.38533 8.51876C7.00603 9.17205 6.58856 10.1907 6.18381 11.8014C6.36249 11.3654 6.57778 10.9454 6.82737 10.5458C6.49049 11.4009 6.16534 12.7437 6.10046 14.8113C6.18186 14.3846 6.28623 13.9626 6.41313 13.5472C6.33353 15.2628 6.62929 16.9751 7.27978 18.5646C7.51259 19.1341 7.89763 19.9985 8.55242 20.9452C10.6123 23.1122 13.517 24.4597 16.7335 24.4597C20.0918 24.4597 23.1074 22.9907 25.1793 20.6577H25.1796Z" fill="url(#paint1_linear_18_69)"/>
<path id="Vector_2" d="M22.695 22.2313C26.7592 21.7607 28.5591 17.5725 26.2479 17.4901C24.161 17.4227 20.7711 22.4534 22.695 22.2313Z" fill="url(#paint2_radial_18_69)"/>
<path id="Vector_3" d="M26.5405 16.6347C29.3368 15.0072 28.6066 11.4922 28.6066 11.4922C28.6066 11.4922 27.5274 12.7459 26.7945 14.7442C26.0713 16.724 24.8596 17.6174 26.5405 16.6347Z" fill="url(#paint3_radial_18_69)"/>
<path id="Vector_4" d="M17.6636 24.3115C21.5622 25.5552 24.9134 22.4844 22.8473 21.4588C20.9708 20.534 15.8128 23.7236 17.6634 24.3115H17.6636Z" fill="url(#paint4_radial_18_69)"/>
<path id="Vector_5" d="M26.8311 18.1272C26.9259 17.9934 27.0542 17.565 27.1675 17.3736C27.8557 16.2627 27.8607 15.3773 27.8607 15.3563C28.2764 13.2797 28.2387 12.4318 27.983 10.8647C27.7771 9.60202 26.877 7.79287 26.0972 6.92199C25.2937 6.02365 25.8602 6.31686 25.0816 5.66132C24.3996 4.90523 23.7386 4.15662 23.3785 3.85567C20.7766 1.67946 20.8352 1.21732 20.8859 1.13797L20.8492 1.17889C20.8178 1.05662 20.796 0.953308 20.796 0.953308C20.796 0.953308 19.3737 2.37567 19.0742 4.74627C18.8789 6.2934 19.458 7.90741 20.297 8.9385C20.7338 9.4729 21.2275 9.95819 21.7692 10.3858C22.4031 11.2961 22.7519 12.4195 22.7519 13.6273C22.7519 16.6527 20.298 19.1054 17.2708 19.1054C16.8583 19.1056 16.4471 19.0594 16.0449 18.9676C14.6165 18.6951 13.7915 17.9745 13.3803 17.4854C13.1445 17.2052 13.0444 17.0008 13.0444 17.0008C14.3241 17.4592 15.7394 17.3634 16.5996 16.888C17.4667 16.4074 17.9912 16.0508 18.4172 16.1913C18.8369 16.331 19.1708 15.925 18.8714 15.5041C18.5777 15.0836 17.8133 14.481 16.6784 14.6482C15.81 14.7747 15.015 15.3908 13.8776 14.7939C13.8044 14.756 13.7332 14.7143 13.6643 14.6691C13.5894 14.6249 13.9081 14.7365 13.834 14.6861C13.6126 14.5783 13.2208 14.3435 13.1193 14.2601C13.1023 14.2462 13.291 14.314 13.274 14.3001C12.2105 13.5153 12.3432 12.985 12.3757 12.6531C12.4024 12.3871 12.5953 12.0462 12.9212 11.908C13.0079 11.9499 13.0931 11.9951 13.1764 12.0435L13.0731 11.8563C13.0856 11.8513 13.0981 11.8526 13.1106 11.8478C13.303 11.9351 13.4912 12.0315 13.6745 12.1366C13.8699 12.2601 13.932 12.3701 13.932 12.3701C13.932 12.3701 13.9834 12.3452 13.9455 12.2371C13.9315 12.193 13.8724 12.0525 13.679 11.911H13.691C13.8058 11.9695 13.9154 12.0377 14.0186 12.1149C14.0735 11.9372 14.1713 11.7515 14.1496 11.4196C14.1364 11.1863 14.1426 11.1257 14.0967 11.0354C14.0556 10.958 14.1197 10.9281 14.191 11.0079C14.1787 10.9445 14.1583 10.8829 14.1302 10.8247V10.8188C14.2192 10.5408 16.0149 9.81762 16.1457 9.73327C16.3563 9.60105 16.5363 9.42557 16.6739 9.21848C16.7738 9.07574 16.8486 8.87586 16.8673 8.57218C16.8736 8.43543 16.8314 8.32713 16.3558 8.22282C16.0703 8.16044 15.6286 8.10055 14.9476 8.03642C14.4511 7.9925 14.1596 7.6701 13.9944 7.37265C13.9645 7.30852 13.9333 7.25038 13.9026 7.19248C13.8733 7.12503 13.8497 7.05525 13.832 6.98387C14.1291 6.20599 14.6643 5.54177 15.3611 5.08589C15.4011 5.05345 15.2014 5.09413 15.2414 5.06094C15.288 5.02301 15.5922 4.91296 15.6498 4.88826C15.7197 4.85831 15.3504 4.71758 15.022 4.75176C14.6886 4.78545 14.6178 4.82113 14.4401 4.88901C14.5149 4.82313 14.7488 4.73679 14.6936 4.73729C14.3343 4.7872 13.8876 4.97385 13.5058 5.18646C13.5051 5.14932 13.513 5.11251 13.5288 5.07891C13.3509 5.14628 12.9139 5.42002 12.7869 5.65284C12.7923 5.60856 12.7948 5.56395 12.7941 5.51934C12.6602 5.61918 12.538 5.73386 12.4298 5.8612L12.4231 5.86669C11.3925 5.49488 10.4847 5.46993 9.71735 5.63712C9.54916 5.4859 9.27891 5.25707 8.89637 4.50422C8.87142 4.45881 8.85644 4.5978 8.83648 4.55413C8.68676 4.20977 8.59817 3.64482 8.6119 3.25654C8.6119 3.25654 8.30447 3.39628 8.05044 3.98169C8.0169 4.05661 7.98094 4.13043 7.94264 4.20303C7.92867 4.22 7.97433 4.01089 7.96759 4.02237C7.92342 4.09723 7.80889 4.20203 7.75873 4.33728C7.72429 4.4371 7.67588 4.49374 7.64494 4.61926L7.63746 4.63074C7.63496 4.5938 7.64669 4.47902 7.63746 4.50247C7.51801 4.7428 7.41513 4.991 7.32953 5.24535C7.19228 5.69451 7.03308 6.30837 7.00762 7.10615C7.00163 7.16653 7.00762 7.23441 7.00139 7.28881C6.67699 7.65887 6.4559 7.97254 6.37255 8.13474C5.95333 8.78353 5.49094 9.79266 5.04252 11.3902C5.24184 10.9537 5.4802 10.5361 5.7547 10.1425C5.38264 10.9909 5.02281 12.3227 4.95044 14.3734C5.04085 13.949 5.15642 13.5304 5.29655 13.1197C5.23242 14.4872 5.39162 16.1826 6.25602 18.0965C6.76932 19.2194 7.95087 21.5052 10.838 23.2881C10.838 23.2881 11.8202 24.0193 13.5081 24.5673L13.8881 24.7003C13.8486 24.6843 13.8094 24.6672 13.7708 24.6491C14.8946 24.9859 16.0613 25.1574 17.2344 25.1584C21.6058 25.1622 22.8952 23.4067 22.8952 23.4067L22.8827 23.4161C22.9442 23.3579 23.0036 23.2975 23.0608 23.235C22.3706 23.8858 20.796 23.9297 20.2084 23.8825C21.212 23.5881 21.8728 23.3385 23.1572 22.8464C23.3069 22.7906 23.4606 22.727 23.6183 22.6558L23.763 22.5889C24.389 22.2939 24.9775 21.9253 25.5163 21.491C26.8064 20.4604 27.0871 19.4557 27.2339 18.7935C27.2134 18.8568 27.1498 19.0048 27.1048 19.1009C26.773 19.8116 26.0358 20.2488 25.2358 20.6218C25.6165 20.1222 25.9696 19.602 26.2934 19.0637C26.5549 18.8049 26.6352 18.3999 26.8314 18.1272H26.8311Z" fill="url(#paint5_radial_18_69)"/>
<path id="Vector_6" d="M25.2608 20.5919C25.7868 20.0119 26.2589 19.3487 26.617 18.5956C27.5378 16.6597 28.9627 13.4406 27.8397 10.0789C26.9539 7.4218 25.7369 5.96899 24.1922 4.54962C21.6834 2.2449 20.9827 1.21581 20.9827 0.603943C20.9827 0.603943 18.0856 3.83295 19.3422 7.2012C20.5989 10.5695 23.1716 10.4452 24.874 13.9604C26.877 18.0962 23.2532 22.6094 20.2575 23.873C20.441 23.8324 26.9202 22.3663 27.2596 18.6607C27.2508 18.7288 27.1048 19.7537 25.2608 20.5921V20.5919Z" fill="url(#paint6_radial_18_69)"/>
<path id="Vector_7" d="M16.8684 8.5734C16.8783 8.35455 16.7646 8.20758 14.9549 8.03789C14.2103 7.96902 13.9253 7.28105 13.8382 6.99133C13.5737 7.67906 13.4639 8.40122 13.5228 9.2741C13.5627 9.84604 13.947 10.4599 14.1309 10.8212C14.1309 10.8212 14.1719 10.7681 14.1908 10.7489C14.5367 10.3888 15.986 9.84005 16.1222 9.76219C16.2725 9.66637 16.8434 9.24914 16.8689 8.57365L16.8684 8.5734Z" fill="url(#paint7_linear_18_69)"/>
<path id="Vector_8" d="M8.90065 4.50843C8.8757 4.46301 8.86073 4.602 8.84076 4.55834C8.69104 4.21397 8.60171 3.65501 8.62317 3.26074C8.62317 3.26074 8.31574 3.40048 8.06171 3.9859C8.0143 4.0907 7.98435 4.14909 7.95391 4.20699C7.93994 4.22396 7.9856 4.01484 7.97886 4.02632C7.9347 4.10118 7.82016 4.20599 7.7705 4.33525C7.72933 4.44105 7.6869 4.49795 7.65571 4.62895C7.64573 4.66464 7.66569 4.47125 7.65696 4.4947C7.06456 5.63658 6.95177 7.36638 7.01415 7.29152C8.27382 5.94751 9.71664 5.6286 9.71664 5.6286C9.56317 5.51556 9.22929 5.18867 8.90065 4.50818V4.50843Z" fill="url(#paint8_linear_18_69)"/>
<path id="Vector_9" d="M13.6802 18.5731C11.9404 17.8302 9.96211 16.7827 10.037 14.4023C10.1388 11.2679 12.9606 11.8875 12.9606 11.8875C12.854 11.9125 12.5693 12.1161 12.4685 12.3322C12.3619 12.6024 12.1673 13.2126 12.7567 13.8519C13.6825 14.855 10.8552 16.2315 15.2186 18.8319C15.3284 18.8918 14.1955 18.7962 13.6805 18.5734L13.6802 18.5731Z" fill="url(#paint9_linear_18_69)"/>
<path id="Vector_10" d="M13.0622 17.011C14.2959 17.4402 15.7322 17.3653 16.5936 16.8897C17.17 16.569 17.9087 16.0555 18.3633 16.1823C17.9696 16.0266 17.6714 15.9539 17.3128 15.9362C17.2516 15.9362 17.1785 15.935 17.1131 15.9282C16.9817 15.9278 16.8504 15.9349 16.7199 15.9497C16.4978 15.9702 16.2515 16.1101 16.0277 16.0877C16.0157 16.0877 16.2448 15.9936 16.2273 15.9979C16.1088 16.0228 15.9797 16.0278 15.8437 16.0448C15.7572 16.0548 15.6828 16.0652 15.5967 16.0697C13.0265 16.2876 10.8555 14.6773 10.8555 14.6773C10.6708 15.3011 11.6832 16.5314 13.0644 17.0122L13.0622 17.011Z" fill="url(#paint10_linear_18_69)"/>
<path id="Vector_11" d="M25.2563 20.6081C27.8555 18.0561 29.1705 14.9541 28.6146 11.475C28.6146 11.475 28.8367 13.2592 27.9945 15.0841C28.3987 13.3024 28.4461 11.089 27.3706 8.79575C25.9365 5.73542 23.5772 4.12491 22.6763 3.45366C21.3114 2.43554 20.7462 1.39947 20.7354 1.18536C20.3277 2.02081 19.0942 4.8835 20.6032 7.34893C22.0166 9.65864 24.2429 10.3434 25.8018 12.4632C28.6735 16.3665 25.2566 20.6081 25.2566 20.6081H25.2563Z" fill="url(#paint11_linear_18_69)"/>
<path id="Vector_12" d="M24.8835 13.9679C23.9752 12.0914 22.8423 11.2729 21.7692 10.3858C21.894 10.5605 21.9247 10.6221 21.9938 10.7352C22.9378 11.7413 24.3295 14.1952 23.3189 17.2755C21.4169 23.0743 13.809 20.3438 13.0105 19.5768C13.3331 22.933 18.9495 24.5385 22.6077 22.3623C24.6888 20.3922 26.3725 17.0435 24.8835 13.9679Z" fill="url(#paint12_linear_18_69)"/>
</g>
</g>
</g>
<defs>
<filter id="filter0_d_18_69" x="0.950439" y="0.603943" width="31.79" height="32.5544" filterUnits="userSpaceOnUse" color-interpolation-filters="sRGB">
<feFlood flood-opacity="0" result="BackgroundImageFix"/>
<feColorMatrix in="SourceAlpha" type="matrix" values="0 0 0 0 0 0 0 0 0 0 0 0 0 0 0 0 0 0 127 0" result="hardAlpha"/>
<feOffset dy="4"/>
<feGaussianBlur stdDeviation="2"/>
<feComposite in2="hardAlpha" operator="out"/>
<feColorMatrix type="matrix" values="0 0 0 0 0 0 0 0 0 0 0 0 0 0 0 0 0 0 0.25 0"/>
<feBlend mode="normal" in2="BackgroundImageFix" result="effect1_dropShadow_18_69"/>
<feBlend mode="normal" in="SourceGraphic" in2="effect1_dropShadow_18_69" result="shape"/>
</filter>
<radialGradient id="paint0_radial_18_69" cx="0" cy="0" r="1" gradientUnits="userSpaceOnUse" gradientTransform="translate(28.317 8.20701) rotate(2.2605) scale(8.55752 12.6136)">
<stop offset="0.1" stop-color="#FFEA00"/>
<stop offset="0.17" stop-color="#FFDE00"/>
<stop offset="0.28" stop-color="#FFBF00"/>
<stop offset="0.43" stop-color="#FF8E00"/>
<stop offset="0.77" stop-color="#FF272D"/>
<stop offset="0.87" stop-color="#E0255A"/>
<stop offset="0.95" stop-color="#CC2477"/>
<stop offset="1" stop-color="#C42482"/>
</radialGradient>
<linearGradient id="paint1_linear_18_69" x1="18.4421" y1="18.7999" x2="13.6649" y2="3.17318" gradientUnits="userSpaceOnUse">
<stop stop-color="#000F43" stop-opacity="0.4"/>
<stop offset="0.48" stop-color="#001962" stop-opacity="0.17"/>
<stop offset="1" stop-color="#002079" stop-opacity="0"/>
</linearGradient>
<radialGradient id="paint2_radial_18_69" cx="0" cy="0" r="1" gradientUnits="userSpaceOnUse" gradientTransform="translate(29.0366 16.9187) rotate(5.61758) scale(8.16428)">
<stop stop-color="#FFEA00"/>
<stop offset="0.5" stop-color="#FF272D"/>
<stop offset="1" stop-color="#C42482"/>
</radialGradient>
<radialGradient id="paint3_radial_18_69" cx="0" cy="0" r="1" gradientUnits="userSpaceOnUse" gradientTransform="translate(29.0662 9.05572) rotate(5.61758) scale(13.6335 13.6335)">
<stop stop-color="#FFE900"/>
<stop offset="0.16" stop-color="#FFAF0E"/>
<stop offset="0.32" stop-color="#FF7A1B"/>
<stop offset="0.47" stop-color="#FF4E26"/>
<stop offset="0.62" stop-color="#FF2C2E"/>
<stop offset="0.76" stop-color="#FF1434"/>
<stop offset="0.89" stop-color="#FF0538"/>
<stop offset="1" stop-color="#FF0039"/>
</radialGradient>
<radialGradient id="paint4_radial_18_69" cx="0" cy="0" r="1" gradientUnits="userSpaceOnUse" gradientTransform="translate(29.7499 21.824) rotate(5.61758) scale(12.5103 12.5103)">
<stop stop-color="#FF272D"/>
<stop offset="0.5" stop-color="#C42482"/>
<stop offset="0.99" stop-color="#620700"/>
</radialGradient>
<radialGradient id="paint5_radial_18_69" cx="0" cy="0" r="1" gradientUnits="userSpaceOnUse" gradientTransform="translate(22.7971 10.4367) scale(19.5183 19.5183)">
<stop offset="0.16" stop-color="#FFEA00"/>
<stop offset="0.23" stop-color="#FFDE00"/>
<stop offset="0.37" stop-color="#FFBF00"/>
<stop offset="0.54" stop-color="#FF8E00"/>
<stop offset="0.76" stop-color="#FF272D"/>
<stop offset="0.8" stop-color="#F92433"/>
<stop offset="0.84" stop-color="#E91C45"/>
<stop offset="0.89" stop-color="#CF0E62"/>
<stop offset="0.94" stop-color="#B5007F"/>
</radialGradient>
<radialGradient id="paint6_radial_18_69" cx="0" cy="0" r="1" gradientUnits="userSpaceOnUse" gradientTransform="translate(21.6779 1.38474) scale(22.245 22.245)">
<stop offset="0.28" stop-color="#FFEA00"/>
<stop offset="0.4" stop-color="#FFDD00"/>
<stop offset="0.63" stop-color="#FFBA00"/>
<stop offset="0.86" stop-color="#FF9100"/>
<stop offset="0.93" stop-color="#FF6711"/>
<stop offset="0.99" stop-color="#FF4A1D"/>
</radialGradient>
<linearGradient id="paint7_linear_18_69" x1="8.70476" y1="9.96681" x2="18.2855" y2="8.50253" gradientUnits="userSpaceOnUse">
<stop stop-color="#C42482" stop-opacity="0.5"/>
<stop offset="0.47" stop-color="#FF272D" stop-opacity="0.5"/>
<stop offset="0.49" stop-color="#FF2C2C" stop-opacity="0.5"/>
<stop offset="0.68" stop-color="#FF7A1A" stop-opacity="0.72"/>
<stop offset="0.83" stop-color="#FFB20D" stop-opacity="0.87"/>
<stop offset="0.94" stop-color="#FFD605" stop-opacity="0.96"/>
<stop offset="1" stop-color="#FFE302"/>
</linearGradient>
<linearGradient id="paint8_linear_18_69" x1="8.50838" y1="7.22339" x2="7.50923" y2="3.6313" gradientUnits="userSpaceOnUse">
<stop stop-color="#891551" stop-opacity="0.6"/>
<stop offset="1" stop-color="#C42482" stop-opacity="0"/>
</linearGradient>
<linearGradient id="paint9_linear_18_69" x1="10.4539" y1="12.2171" x2="12.5121" y2="15.0923" gradientUnits="userSpaceOnUse">
<stop offset="0.01" stop-color="#891551" stop-opacity="0.5"/>
<stop offset="0.48" stop-color="#FF272D" stop-opacity="0.5"/>
<stop offset="1" stop-color="#FF272D" stop-opacity="0"/>
</linearGradient>
<linearGradient id="paint10_linear_18_69" x1="14.3892" y1="17.251" x2="14.5773" y2="15.404" gradientUnits="userSpaceOnUse">
<stop stop-color="#C42482"/>
<stop offset="0.08" stop-color="#C42482" stop-opacity="0.8"/>
<stop offset="0.21" stop-color="#C42482" stop-opacity="0.57"/>
<stop offset="0.33" stop-color="#C42482" stop-opacity="0.36"/>
<stop offset="0.45" stop-color="#C42482" stop-opacity="0.2"/>
<stop offset="0.56" stop-color="#C42482" stop-opacity="0.1"/>
<stop offset="0.67" stop-color="#C42482" stop-opacity="0.02"/>
<stop offset="0.77" stop-color="#C42482" stop-opacity="0"/>
</linearGradient>
<linearGradient id="paint11_linear_18_69" x1="20.435" y1="1.50527" x2="28.0624" y2="18.5609" gradientUnits="userSpaceOnUse">
<stop stop-color="#FFF14F"/>
<stop offset="0.27" stop-color="#FFEE4C"/>
<stop offset="0.45" stop-color="#FFE643"/>
<stop offset="0.61" stop-color="#FFD834"/>
<stop offset="0.76" stop-color="#FFC41E"/>
<stop offset="0.89" stop-color="#FFAB02"/>
<stop offset="0.9" stop-color="#FFA900"/>
<stop offset="0.95" stop-color="#FFA000"/>
<stop offset="1" stop-color="#FF9100"/>
</linearGradient>
<linearGradient id="paint12_linear_18_69" x1="21.9409" y1="11.3143" x2="18.3281" y2="21.0151" gradientUnits="userSpaceOnUse">
<stop stop-color="#FF8E00"/>
<stop offset="0.04" stop-color="#FF8E00" stop-opacity="0.86"/>
<stop offset="0.08" stop-color="#FF8E00" stop-opacity="0.73"/>
<stop offset="0.13" stop-color="#FF8E00" stop-opacity="0.63"/>
<stop offset="0.18" stop-color="#FF8E00" stop-opacity="0.56"/>
<stop offset="0.23" stop-color="#FF8E00" stop-opacity="0.5"/>
<stop offset="0.28" stop-color="#FF8E00" stop-opacity="0.5"/>
<stop offset="0.39" stop-color="#FF8E00" stop-opacity="0.48"/>
<stop offset="0.52" stop-color="#FF8E00" stop-opacity="0.42"/>
<stop offset="0.68" stop-color="#FF8E00" stop-opacity="0.3"/>
<stop offset="0.84" stop-color="#FF8E00" stop-opacity="0.17"/>
<stop offset="1" stop-color="#FF8E00" stop-opacity="0"/>
</linearGradient>
</defs>
</svg>
